<?xml version="1.0" encoding="UTF-8"?>
<svg version="1.1" xmlns="http://www.w3.org/2000/svg" width="512" height="512">
<path d="M0 0 C1.01823853 0.00215515 2.03647705 0.0043103 3.08557129 0.00653076 C17.7097884 0.05623391 32.00304638 0.37042012 46.375 3.3125 C47.37160645 3.50585938 48.36821289 3.69921875 49.39501953 3.8984375 C88.01368568 11.52914208 124.14015454 27.25047736 155.375 51.3125 C156.18710937 51.93253906 156.99921875 52.55257812 157.8359375 53.19140625 C174.90108372 66.51514029 191.26144896 82.13175144 204.10107422 99.59423828 C205.39750666 101.34285682 206.72788718 103.06078803 208.06640625 104.77734375 C215.93067241 114.9920598 222.3161092 125.94975258 228.375 137.3125 C229.03846436 138.55314209 229.03846436 138.55314209 229.71533203 139.81884766 C241.23204842 161.72199262 248.9030584 186.01309889 253.375 210.3125 C253.53581055 211.11316895 253.69662109 211.91383789 253.86230469 212.73876953 C259.3544441 240.81662453 259.10896692 274.30227935 253.375 302.3125 C253.18164062 303.30910645 252.98828125 304.30571289 252.7890625 305.33251953 C244.67028127 346.42132055 227.30084885 383.51549494 201.375 416.3125 C200.56289063 417.35019531 199.75078125 418.38789063 198.9140625 419.45703125 C186.24907313 435.01858759 171.69874403 449.61464417 155.375 461.3125 C154.02974408 462.30180622 152.68470229 463.29140366 151.33984375 464.28125 C116.16613227 489.89565441 75.53560925 505.77286752 32.375 511.3125 C31.70779434 511.39982895 31.04058868 511.4871579 30.35316467 511.57713318 C24.6367952 512.27337492 18.99757373 512.48706148 13.2421875 512.515625 C12.2958847 512.52268463 11.34958191 512.52974426 10.37460327 512.53701782 C-28.77050628 512.76278019 -28.77050628 512.76278019 -45.625 509.3125 C-47.11990967 509.02246094 -47.11990967 509.02246094 -48.64501953 508.7265625 C-89.73382055 500.60778127 -126.82799494 483.23834885 -159.625 457.3125 C-160.66269531 456.50039063 -161.70039063 455.68828125 -162.76953125 454.8515625 C-178.33623494 442.18238389 -192.90286525 427.62451036 -204.625 411.3125 C-205.4887527 410.14261544 -206.35335469 408.9733575 -207.21875 407.8046875 C-222.36207742 387.1786757 -234.4442165 364.56952873 -242.625 340.3125 C-243.03806396 339.08998535 -243.03806396 339.08998535 -243.45947266 337.84277344 C-246.69755506 328.07192323 -249.22985473 318.19031263 -251.375 308.125 C-251.57375732 307.20033936 -251.77251465 306.27567871 -251.97729492 305.32299805 C-255.26999027 289.11638823 -256.00030278 273.1821298 -255.9375 256.6875 C-255.93534485 255.66926147 -255.9331897 254.65102295 -255.93096924 253.60192871 C-255.88126609 238.9777116 -255.56707988 224.68445362 -252.625 210.3125 C-252.33496094 208.81759033 -252.33496094 208.81759033 -252.0390625 207.29248047 C-244.41040781 168.68418872 -228.69757683 132.53083121 -204.625 101.3125 C-203.66013672 100.05953125 -203.66013672 100.05953125 -202.67578125 98.78125 C-188.57295377 80.82715922 -172.21896589 63.63892592 -153.625 50.3125 C-153.08327148 49.920625 -152.54154297 49.52875 -151.98339844 49.125 C-130.96297257 33.97334745 -108.19909835 21.60021655 -83.625 13.3125 C-82.40248535 12.89943604 -82.40248535 12.89943604 -81.15527344 12.47802734 C-71.38442323 9.23994494 -61.50281263 6.70764527 -51.4375 4.5625 C-50.51283936 4.36374268 -49.58817871 4.16498535 -48.63549805 3.96020508 C-32.42888823 0.66750973 -16.4946298 -0.06280278 0 0 Z " fill="#203892" transform="translate(255.625,-0.3125)"/>
<path d="M0 0 C1.01823853 0.00215515 2.03647705 0.0043103 3.08557129 0.00653076 C17.7097884 0.05623391 32.00304638 0.37042012 46.375 3.3125 C47.37160645 3.50585938 48.36821289 3.69921875 49.39501953 3.8984375 C88.01368568 11.52914208 124.14015454 27.25047736 155.375 51.3125 C156.18710937 51.93253906 156.99921875 52.55257812 157.8359375 53.19140625 C174.90108372 66.51514029 191.26144896 82.13175144 204.10107422 99.59423828 C205.39750666 101.34285682 206.72788718 103.06078803 208.06640625 104.77734375 C215.93067241 114.9920598 222.3161092 125.94975258 228.375 137.3125 C229.03846436 138.55314209 229.03846436 138.55314209 229.71533203 139.81884766 C241.23204842 161.72199262 248.9030584 186.01309889 253.375 210.3125 C253.53581055 211.11316895 253.69662109 211.91383789 253.86230469 212.73876953 C259.3544441 240.81662453 259.10896692 274.30227935 253.375 302.3125 C253.18164062 303.30910645 252.98828125 304.30571289 252.7890625 305.33251953 C244.67028127 346.42132055 227.30084885 383.51549494 201.375 416.3125 C200.56289063 417.35019531 199.75078125 418.38789063 198.9140625 419.45703125 C186.24907313 435.01858759 171.69874403 449.61464417 155.375 461.3125 C154.02974408 462.30180622 152.68470229 463.29140366 151.33984375 464.28125 C116.16613227 489.89565441 75.53560925 505.77286752 32.375 511.3125 C31.70779434 511.39982895 31.04058868 511.4871579 30.35316467 511.57713318 C24.6367952 512.27337492 18.99757373 512.48706148 13.2421875 512.515625 C12.2958847 512.52268463 11.34958191 512.52974426 10.37460327 512.53701782 C-28.77050628 512.76278019 -28.77050628 512.76278019 -45.625 509.3125 C-47.11990967 509.02246094 -47.11990967 509.02246094 -48.64501953 508.7265625 C-89.73382055 500.60778127 -126.82799494 483.23834885 -159.625 457.3125 C-160.66269531 456.50039063 -161.70039063 455.68828125 -162.76953125 454.8515625 C-178.33623494 442.18238389 -192.90286525 427.62451036 -204.625 411.3125 C-205.4887527 410.14261544 -206.35335469 408.9733575 -207.21875 407.8046875 C-222.36207742 387.1786757 -234.4442165 364.56952873 -242.625 340.3125 C-243.03806396 339.08998535 -243.03806396 339.08998535 -243.45947266 337.84277344 C-246.69755506 328.07192323 -249.22985473 318.19031263 -251.375 308.125 C-251.57375732 307.20033936 -251.77251465 306.27567871 -251.97729492 305.32299805 C-255.26999027 289.11638823 -256.00030278 273.1821298 -255.9375 256.6875 C-255.93534485 255.66926147 -255.9331897 254.65102295 -255.93096924 253.60192871 C-255.88126609 238.9777116 -255.56707988 224.68445362 -252.625 210.3125 C-252.33496094 208.81759033 -252.33496094 208.81759033 -252.0390625 207.29248047 C-244.41040781 168.68418872 -228.69757683 132.53083121 -204.625 101.3125 C-203.66013672 100.05953125 -203.66013672 100.05953125 -202.67578125 98.78125 C-188.57295377 80.82715922 -172.21896589 63.63892592 -153.625 50.3125 C-153.08327148 49.920625 -152.54154297 49.52875 -151.98339844 49.125 C-130.96297257 33.97334745 -108.19909835 21.60021655 -83.625 13.3125 C-82.40248535 12.89943604 -82.40248535 12.89943604 -81.15527344 12.47802734 C-71.38442323 9.23994494 -61.50281263 6.70764527 -51.4375 4.5625 C-50.51283936 4.36374268 -49.58817871 4.16498535 -48.63549805 3.96020508 C-32.42888823 0.66750973 -16.4946298 -0.06280278 0 0 Z M-124.625 113.3125 C-125.20910645 113.81539551 -125.79321289 114.31829102 -126.39501953 114.83642578 C-134.9747698 122.29418978 -142.5865299 130.38781284 -149.625 139.3125 C-150.11323242 139.93157227 -150.60146484 140.55064453 -151.10449219 141.18847656 C-164.67700833 158.71554256 -175.15973407 179.1112902 -181.625 200.3125 C-181.86154297 201.08803223 -182.09808594 201.86356445 -182.34179688 202.66259766 C-190.09132049 228.91115722 -192.14857063 257.30338121 -187.625 284.3125 C-187.50672852 285.08706543 -187.38845703 285.86163086 -187.26660156 286.65966797 C-180.65396707 329.60814009 -157.78934527 372.77615822 -123.625 400.3125 C-122.65691406 401.11816406 -121.68882812 401.92382812 -120.69140625 402.75390625 C-81.79860024 434.64358035 -32.21024787 450.60873336 18.02514648 445.79492188 C21.49203951 445.39941772 24.93112255 444.87111198 28.375 444.3125 C29.17969727 444.18891113 29.98439453 444.06532227 30.81347656 443.93798828 C66.63457335 438.3217958 100.66712928 422.05090461 127.21484375 397.3203125 C129.24038639 395.43762006 131.32204391 393.65512939 133.4375 391.875 C155.03579128 372.85304565 168.97219581 346.71339259 179.375 320.3125 C179.64183594 319.63622559 179.90867187 318.95995117 180.18359375 318.26318359 C184.4143978 307.27738631 186.51116053 295.89604971 188.375 284.3125 C188.49504395 283.57241699 188.61508789 282.83233398 188.73876953 282.06982422 C195.88824354 236.13631836 183.9762785 187.28676348 157.484375 149.19140625 C147.47838869 135.5350879 136.69643793 121.90133528 123.375 111.3125 C122.42367188 110.54679687 121.47234375 109.78109375 120.4921875 108.9921875 C94.22108422 88.14005449 63.9892396 74.27150282 30.875 68.5625 C30.13282227 68.43447998 29.39064453 68.30645996 28.62597656 68.17456055 C24.17911324 67.4604253 19.89063891 66.98795594 15.375 67.3125 C12.39380459 69.54226163 12.39380459 69.54226163 10.375 72.3125 C10.375 72.9725 10.375 73.6325 10.375 74.3125 C3.445 74.3125 -3.485 74.3125 -10.625 74.3125 C-11.615 71.8375 -11.615 71.8375 -12.625 69.3125 C-39.83056119 51.17545921 -104.49663105 95.90913804 -124.625 113.3125 Z " fill="#4F67C9" transform="translate(255.625,-0.3125)"/>
<path d="M0 0 C3 2.375 3 2.375 5 5 C5 5.66 5 6.32 5 7 C11.93 7 18.86 7 26 7 C26.66 5.35 27.32 3.7 28 2 C35.85960949 -3.23973966 49.19047804 1.70211689 57.7890625 3.39453125 C89.43109036 10.10533052 119.00209196 26.00372607 142.69921875 47.88671875 C144.77785234 49.79595605 146.90420746 51.61976644 149.0625 53.4375 C184.04496231 84.16062059 202.64687745 132.56338666 206 178 C206.81628598 192.05668117 205.69139902 205.65216352 203.40576172 219.52539062 C203.03951931 221.75898454 202.705215 223.99468603 202.37890625 226.234375 C197.03907151 259.26838367 179.66397654 291.51897949 157.0078125 315.83984375 C155.12512006 317.86538639 153.34262939 319.94704391 151.5625 322.0625 C132.52263702 343.68112546 106.40117714 357.54953405 80 368 C79.3503125 368.26151855 78.700625 368.52303711 78.03125 368.79248047 C35.26997693 385.6836522 -16.42243998 382.06003684 -58.15625 364.19140625 C-79.72475843 354.5942897 -98.32292487 341.81638963 -115.75 325.9375 C-116.26908936 325.46707275 -116.78817871 324.99664551 -117.32299805 324.51196289 C-132.13305564 310.80330478 -143.57142186 293.70829593 -153 276 C-153.33193359 275.38543945 -153.66386719 274.77087891 -154.00585938 274.13769531 C-176.78569437 231.27372008 -179.91469749 178.74757684 -165.87109375 132.70947266 C-159.21267514 111.99895422 -149.41610228 92.15860389 -136 75 C-135.26136719 74.05125 -134.52273437 73.1025 -133.76171875 72.125 C-105.26034267 36.48562387 -49.04040164 -5.91866916 0 0 Z M0.27734375 13.41796875 C-3.88512375 15.42726474 -7.69960165 15.83438472 -12.25 16.375 C-55.74675029 22.34849538 -96.80297038 47.46183048 -123.30859375 82.34375 C-150.80273874 119.30213176 -164.33010503 165.11781524 -157.6875 211.0625 C-157.27940854 213.61968423 -156.84881698 216.17090149 -156.39697266 218.72070312 C-156.04525073 220.74018401 -155.74349788 222.76822739 -155.44921875 224.796875 C-148.77366575 265.66760768 -121.34040771 305.6181088 -88.26171875 329.7734375 C-60.79741134 348.52152759 -28.97627364 363.51394677 4.96630859 363.02905273 C5.97298584 363.01467163 5.97298584 363.01467163 7 363 C1.08408501 353.60420953 -5.0150151 344.33265845 -11.125 335.0625 C-12.22425533 333.3935895 -13.32345644 331.72464329 -14.42260742 330.05566406 C-16.7508492 326.5206975 -19.07963748 322.98609167 -21.40869141 319.45166016 C-24.38250677 314.93821777 -27.35373641 310.42308025 -30.3240509 305.90733337 C-33.31914134 301.35419148 -36.31554614 296.80191553 -39.3125 292.25 C-40.2062886 290.89239059 -40.2062886 290.89239059 -41.11813354 289.50735474 C-48.0451427 278.98931599 -54.99708707 268.48852179 -61.9921875 258.015625 C-62.64182968 257.04280579 -63.29147186 256.06998657 -63.96080017 255.06768799 C-67.08435853 250.3918198 -70.21128644 245.71824974 -73.34301758 241.04785156 C-74.46178822 239.37567574 -75.58052389 237.70347652 -76.69921875 236.03125 C-77.20923431 235.27297913 -77.71924988 234.51470825 -78.24472046 233.73345947 C-78.94669052 232.68300446 -78.94669052 232.68300446 -79.6628418 231.61132812 C-80.06834763 231.0067981 -80.47385345 230.40226807 -80.89164734 229.77941895 C-84.06518334 224.68442502 -84.06518334 224.68442502 -83.75 221.375 C-83 219 -83 219 -81 217 C-79.01178687 216.60235737 -77.01055661 216.26224651 -75 216 C-75.495 214.948125 -75.99 213.89625 -76.5 212.8125 C-77.80529844 209.73572511 -78.563032 207.37819199 -78 204 C-76.9375 202.1875 -76.9375 202.1875 -75 201 C-67.69764269 199.85164542 -62.69586653 203.50934696 -56.5625 207.125 C-55.46284912 207.75736572 -54.36319824 208.38973145 -53.23022461 209.04125977 C-49.81117562 211.01248231 -46.40488193 213.00442678 -43 215 C-40.97962916 216.17397338 -38.95881395 217.34718244 -36.9375 218.51953125 C-33.00647487 220.80364798 -29.08149813 223.09774066 -25.16015625 225.3984375 C-20.78266643 227.96374449 -16.39392061 230.50881472 -11.99609375 233.0390625 C-11.41046158 233.37609695 -10.82482941 233.71313141 -10.22145081 234.06037903 C-7.39106699 235.68869317 -4.55956396 237.31502717 -1.72680664 238.93920898 C-0.19141235 239.82201538 -0.19141235 239.82201538 1.375 240.72265625 C2.82712891 241.55240967 2.82712891 241.55240967 4.30859375 242.39892578 C7.38143387 244.22690887 10.3058203 246.22454961 13.18359375 248.34545898 C15.07684542 249.22808006 15.07684542 249.22808006 17.36645508 248.31933594 C20.19737865 246.90111855 22.95408757 245.41069014 25.69921875 243.83203125 C26.81248535 243.19386475 27.92575195 242.55569824 29.07275391 241.89819336 C30.27771682 241.20304466 31.4826309 240.5078113 32.6875 239.8125 C33.94434799 239.09031382 35.20134912 238.3683941 36.45849609 237.64672852 C39.68637148 235.79256933 42.91189349 233.93436047 46.13653564 232.07458496 C48.99525204 230.42607817 51.85518454 228.77968312 54.71484375 227.1328125 C56.31211304 226.21193848 56.31211304 226.21193848 57.94165039 225.27246094 C60.061291 224.050648 62.18156997 222.82994182 64.30249023 221.61035156 C69.34602156 218.70583341 74.37770284 215.78445598 79.37850952 212.80705261 C81.75801556 211.39191141 84.14311576 209.98635709 86.52874756 208.58157349 C88.20848641 207.58707827 89.88000283 206.57873627 91.55126953 205.57006836 C92.57075684 204.97073486 93.59024414 204.37140137 94.640625 203.75390625 C95.53297852 203.22095947 96.42533203 202.6880127 97.34472656 202.13891602 C100.46167051 200.80197748 102.63969934 200.67357911 106 201 C108.4375 202.625 108.4375 202.625 110 205 C109.90483199 209.47289629 108.36749792 212.29435108 106 216 C106 216.66 106 217.32 106 218 C106.680625 217.649375 107.36125 217.29875 108.0625 216.9375 C111.75062687 215.76043823 114.25811936 216.13648908 118 217 C119.41095879 219.82191758 119.24520032 221.86693796 119 225 C117.74780273 227.59008789 117.74780273 227.59008789 115.99609375 230.16015625 C115.35526855 231.11293457 114.71444336 232.06571289 114.05419922 233.04736328 C113.37631348 234.0217334 112.69842773 234.99610352 112 236 C111.35691895 236.93956543 110.71383789 237.87913086 110.05126953 238.84716797 C108.07108405 241.72217359 106.06966198 244.58127417 104.0625 247.4375 C99.3587281 254.16472092 94.68512663 260.89869577 90.1640625 267.75 C81.87931016 280.19208294 73.3596382 292.48055311 64.9152832 304.81469727 C60.7694689 310.87143831 56.63353654 316.93487473 52.5 323 C50.00026081 326.66684453 47.50020311 330.33347177 45 334 C44.37931641 334.91040039 43.75863281 335.82080078 43.11914062 336.75878906 C41.3304275 339.38154386 39.5404088 342.00340255 37.75 344.625 C37.21310547 345.41261719 36.67621094 346.20023437 36.12304688 347.01171875 C35.62353516 347.74261719 35.12402344 348.47351563 34.609375 349.2265625 C34.17592773 349.86158691 33.74248047 350.49661133 33.29589844 351.15087891 C32.35021225 352.50028116 31.35668495 353.81651526 30.33691406 355.11083984 C28.8074466 356.88636567 28.8074466 356.88636567 29 359 C35.82034676 356.98122705 41.97516754 354.20567021 48.25 350.875 C49.16950439 350.38926514 50.08900879 349.90353027 51.03637695 349.40307617 C58.43362512 345.43063632 65.30405719 341.083258 72 336 C73.28003906 335.03513672 73.28003906 335.03513672 74.5859375 334.05078125 C100.62273771 313.8044997 119.95597214 288.24604917 133 258 C133.67482422 256.47246094 133.67482422 256.47246094 134.36328125 254.9140625 C151.43022252 213.80545474 150.37254253 162.49170024 133.859375 121.4765625 C131.75970347 116.55463227 129.44806544 111.75718944 127 107 C126.63116699 106.28134766 126.26233398 105.56269531 125.88232422 104.82226562 C112.88940057 79.90432986 94.44657051 58.81119284 72 42 C71.15695312 41.36191406 70.31390625 40.72382812 69.4453125 40.06640625 C55.8453544 30.15263208 17.48385405 4.45675894 0.27734375 13.41796875 Z " fill="#182C7A" transform="translate(240,67)"/>
<path d="M0 0 C0.85029785 0.35964844 1.7005957 0.71929687 2.57666016 1.08984375 C21.6086551 9.29309557 38.36031176 20.4692864 54 34 C54.95648438 34.82628906 55.91296875 35.65257812 56.8984375 36.50390625 C66.12087054 44.6622124 74.43477648 53.27862546 82 63 C82.42007324 63.53302734 82.84014648 64.06605469 83.27294922 64.61523438 C95.75437371 80.55369413 105.42759094 98.25563746 113 117 C113.45761719 118.11761719 113.91523438 119.23523438 114.38671875 120.38671875 C130.56172185 162.686648 131.69139908 210.8967579 118 254 C117.74879395 254.80163574 117.49758789 255.60327148 117.23876953 256.42919922 C99.92984917 310.79383641 61.21381666 354.89370459 10.77392578 381.15917969 C-11.7299125 392.51517121 -36.06230841 398.97315539 -61 402 C-61.74000244 402.10094971 -62.48000488 402.20189941 -63.24243164 402.3059082 C-113.99563172 408.81774817 -168.55451067 391.79513965 -208.875 360.9375 C-214.49062923 356.55263519 -219.76486024 351.82720679 -225 347 C-225.8559375 346.2471875 -226.711875 345.494375 -227.59375 344.71875 C-232.84012223 340.10447081 -237.5726021 335.39948127 -242 330 C-242.41975098 329.50322754 -242.83950195 329.00645508 -243.27197266 328.49462891 C-259.44716885 309.33757046 -271.14260695 288.09480255 -280.27441406 264.83496094 C-280.88065125 263.30182545 -281.51157597 261.77848188 -282.1484375 260.2578125 C-288.60361548 244.09404683 -290.80594467 226.28072072 -292.69042969 209.1027832 C-292.96474301 206.81463691 -292.96474301 206.81463691 -294 204 C-295.98 203.34 -297.96 202.68 -300 202 C-300 195.07 -300 188.14 -300 181 C-298.02 180.01 -296.04 179.02 -294 178 C-292.92435502 176.16316297 -292.92435502 176.16316297 -292.734375 174.015625 C-292.60482422 173.21705078 -292.47527344 172.41847656 -292.34179688 171.59570312 C-292.22900391 170.73912109 -292.11621094 169.88253906 -292 169 C-291.71444275 167.20298158 -291.42794963 165.40611168 -291.140625 163.609375 C-290.99802246 162.66384766 -290.85541992 161.71832031 -290.70849609 160.74414062 C-284.50283846 120.21901538 -267.12472178 83.65743256 -240 53 C-239.26265625 52.14019531 -238.5253125 51.28039062 -237.765625 50.39453125 C-202.99782197 10.48769165 -150.22462973 -12.8731219 -97.97802734 -16.82568359 C-63.93860397 -18.81815353 -31.41944482 -13.31892969 0 0 Z M-208 50 C-208.58410645 50.50289551 -209.16821289 51.00579102 -209.77001953 51.52392578 C-218.3497698 58.98168978 -225.9615299 67.07531284 -233 76 C-233.48823242 76.61907227 -233.97646484 77.23814453 -234.47949219 77.87597656 C-248.05200833 95.40304256 -258.53473407 115.7987902 -265 137 C-265.23654297 137.77553223 -265.47308594 138.55106445 -265.71679688 139.35009766 C-273.46632049 165.59865722 -275.52357063 193.99088121 -271 221 C-270.88172852 221.77456543 -270.76345703 222.54913086 -270.64160156 223.34716797 C-264.02896707 266.29564009 -241.16434527 309.46365822 -207 337 C-206.03191406 337.80566406 -205.06382812 338.61132812 -204.06640625 339.44140625 C-165.17360024 371.33108035 -115.58524787 387.29623336 -65.34985352 382.48242188 C-61.88296049 382.08691772 -58.44387745 381.55861198 -55 381 C-54.19530273 380.87641113 -53.39060547 380.75282227 -52.56152344 380.62548828 C-16.74042665 375.0092958 17.29212928 358.73840461 43.83984375 334.0078125 C45.86538639 332.12512006 47.94704391 330.34262939 50.0625 328.5625 C71.66079128 309.54054565 85.59719581 283.40089259 96 257 C96.26683594 256.32372559 96.53367187 255.64745117 96.80859375 254.95068359 C101.0393978 243.96488631 103.13616053 232.58354971 105 221 C105.12004395 220.25991699 105.24008789 219.51983398 105.36376953 218.75732422 C112.51324354 172.82381836 100.6012785 123.97426348 74.109375 85.87890625 C64.10338869 72.2225879 53.32143793 58.58883528 40 48 C39.04867188 47.23429687 38.09734375 46.46859375 37.1171875 45.6796875 C10.84608422 24.82755449 -19.3857604 10.95900282 -52.5 5.25 C-53.24217773 5.12197998 -53.98435547 4.99395996 -54.74902344 4.86206055 C-59.19588676 4.1479253 -63.48436109 3.67545594 -68 4 C-70.98119541 6.22976163 -70.98119541 6.22976163 -73 9 C-73 9.66 -73 10.32 -73 11 C-79.93 11 -86.86 11 -94 11 C-94.99 8.525 -94.99 8.525 -96 6 C-123.20556119 -12.13704079 -187.87163105 32.59663804 -208 50 Z " fill="#BBC4E8" transform="translate(339,63)"/>
<path d="M0 0 C1.01823853 0.00215515 2.03647705 0.0043103 3.08557129 0.00653076 C17.7097884 0.05623391 32.00304638 0.37042012 46.375 3.3125 C47.37160645 3.50585938 48.36821289 3.69921875 49.39501953 3.8984375 C88.01368568 11.52914208 124.14015454 27.25047736 155.375 51.3125 C156.18710937 51.93253906 156.99921875 52.55257812 157.8359375 53.19140625 C174.90108372 66.51514029 191.26144896 82.13175144 204.10107422 99.59423828 C205.39750666 101.34285682 206.72788718 103.06078803 208.06640625 104.77734375 C215.93067241 114.9920598 222.3161092 125.94975258 228.375 137.3125 C229.03846436 138.55314209 229.03846436 138.55314209 229.71533203 139.81884766 C241.23204842 161.72199262 248.9030584 186.01309889 253.375 210.3125 C253.53581055 211.11316895 253.69662109 211.91383789 253.86230469 212.73876953 C259.3544441 240.81662453 259.10896692 274.30227935 253.375 302.3125 C253.18164062 303.30910645 252.98828125 304.30571289 252.7890625 305.33251953 C244.67028127 346.42132055 227.30084885 383.51549494 201.375 416.3125 C200.56289063 417.35019531 199.75078125 418.38789063 198.9140625 419.45703125 C186.24907313 435.01858759 171.69874403 449.61464417 155.375 461.3125 C154.02974408 462.30180622 152.68470229 463.29140366 151.33984375 464.28125 C116.16613227 489.89565441 75.53560925 505.77286752 32.375 511.3125 C31.70779434 511.39982895 31.04058868 511.4871579 30.35316467 511.57713318 C24.6367952 512.27337492 18.99757373 512.48706148 13.2421875 512.515625 C12.2958847 512.52268463 11.34958191 512.52974426 10.37460327 512.53701782 C-28.77050628 512.76278019 -28.77050628 512.76278019 -45.625 509.3125 C-47.11990967 509.02246094 -47.11990967 509.02246094 -48.64501953 508.7265625 C-89.73382055 500.60778127 -126.82799494 483.23834885 -159.625 457.3125 C-160.66269531 456.50039063 -161.70039063 455.68828125 -162.76953125 454.8515625 C-178.33623494 442.18238389 -192.90286525 427.62451036 -204.625 411.3125 C-205.4887527 410.14261544 -206.35335469 408.9733575 -207.21875 407.8046875 C-222.36207742 387.1786757 -234.4442165 364.56952873 -242.625 340.3125 C-243.03806396 339.08998535 -243.03806396 339.08998535 -243.45947266 337.84277344 C-246.69755506 328.07192323 -249.22985473 318.19031263 -251.375 308.125 C-251.57375732 307.20033936 -251.77251465 306.27567871 -251.97729492 305.32299805 C-255.26999027 289.11638823 -256.00030278 273.1821298 -255.9375 256.6875 C-255.93534485 255.66926147 -255.9331897 254.65102295 -255.93096924 253.60192871 C-255.88126609 238.9777116 -255.56707988 224.68445362 -252.625 210.3125 C-252.33496094 208.81759033 -252.33496094 208.81759033 -252.0390625 207.29248047 C-244.41040781 168.68418872 -228.69757683 132.53083121 -204.625 101.3125 C-203.66013672 100.05953125 -203.66013672 100.05953125 -202.67578125 98.78125 C-188.57295377 80.82715922 -172.21896589 63.63892592 -153.625 50.3125 C-153.08327148 49.920625 -152.54154297 49.52875 -151.98339844 49.125 C-130.96297257 33.97334745 -108.19909835 21.60021655 -83.625 13.3125 C-82.40248535 12.89943604 -82.40248535 12.89943604 -81.15527344 12.47802734 C-71.38442323 9.23994494 -61.50281263 6.70764527 -51.4375 4.5625 C-50.51283936 4.36374268 -49.58817871 4.16498535 -48.63549805 3.96020508 C-32.42888823 0.66750973 -16.4946298 -0.06280278 0 0 Z M-168.625 84.3125 C-169.12676758 84.78558594 -169.62853516 85.25867188 -170.14550781 85.74609375 C-178.14261632 93.33691829 -185.05535468 101.46631708 -191.625 110.3125 C-192.05554688 110.88758301 -192.48609375 111.46266602 -192.9296875 112.05517578 C-199.44091087 120.79353351 -205.21420452 129.85797838 -210.625 139.3125 C-211.28113281 140.43527344 -211.93726563 141.55804688 -212.61328125 142.71484375 C-221.80330568 159.0874524 -228.615843 176.95202126 -233.07836914 195.17456055 C-233.47210794 196.71452064 -233.89706875 198.24661815 -234.34155273 199.77270508 C-250.74703063 256.3837388 -238.92607621 320.27902703 -211.625 371.3125 C-211.01140625 372.46878906 -210.3978125 373.62507813 -209.765625 374.81640625 C-195.01845646 401.5989706 -173.83445144 426.64115836 -149.625 445.3125 C-148.80588135 445.94623535 -148.80588135 445.94623535 -147.97021484 446.59277344 C-137.97889605 454.27063783 -127.50966721 460.97623841 -116.625 467.3125 C-116.01253418 467.6744043 -115.40006836 468.03630859 -114.76904297 468.40917969 C-97.44004013 478.56270252 -78.11941204 485.66006718 -58.625 490.3125 C-57.9139209 490.48974609 -57.2028418 490.66699219 -56.47021484 490.84960938 C-51.21574854 492.15527178 -45.94268535 493.29512757 -40.625 494.3125 C-39.83270996 494.46493164 -39.04041992 494.61736328 -38.22412109 494.77441406 C-12.6828499 499.46432426 13.83394912 498.33841299 39.375 494.3125 C40.10847656 494.20566895 40.84195312 494.09883789 41.59765625 493.98876953 C67.41624107 490.20179502 92.45552412 480.57359691 115.375 468.3125 C116.53128906 467.69890625 117.68757813 467.0853125 118.87890625 466.453125 C173.86665255 436.17545809 214.31231689 383.33342186 232.07348633 323.51611328 C247.8357735 268.90234091 244.12233462 211.32077243 221.375 159.3125 C220.91770508 158.23959717 220.91770508 158.23959717 220.45117188 157.14501953 C200.54838324 110.70876161 162.89738437 71.0451762 119.16650391 46.32568359 C117.40885012 45.33164391 115.66324571 44.31639439 113.91796875 43.30078125 C90.73988179 30.1147524 62.78530098 20.783419 36.375 17.3125 C35.61638672 17.21243652 34.85777344 17.11237305 34.07617188 17.00927734 C-41.63726981 7.49264324 -113.53537947 32.08881348 -168.625 84.3125 Z " fill="#000001" transform="translate(255.625,-0.3125)"/>
<path d="M0 0 C1.23621094 0.28617188 2.47242188 0.57234375 3.74609375 0.8671875 C32.53117317 7.99251932 59.54849005 20.85613516 83 39 C83.81339844 39.62132812 84.62679688 40.24265625 85.46484375 40.8828125 C92.31092003 46.22556398 98.70462768 52.02869832 105 58 C105.50321777 58.47453613 106.00643555 58.94907227 106.52490234 59.43798828 C114.52337522 67.02997717 121.3933659 75.18238079 128 84 C128.70898438 84.92554687 129.41796875 85.85109375 130.1484375 86.8046875 C146.84064268 109.03896871 158.88490948 135.20255178 166 162 C166.28488281 163.00933594 166.56976563 164.01867187 166.86328125 165.05859375 C181.71528706 219.97293318 171.60417226 281.3939901 143.8737793 330.52954102 C134.16643456 347.22542652 122.26480713 362.00724614 109 376 C108.29037109 376.75265137 108.29037109 376.75265137 107.56640625 377.52050781 C99.97286344 385.52048008 91.81935126 392.39206816 83 399 C81.61167969 400.06347656 81.61167969 400.06347656 80.1953125 401.1484375 C51.71481294 422.52994014 16.18584614 436.96838857 -19 442 C-19.6923877 442.10151367 -20.38477539 442.20302734 -21.09814453 442.30761719 C-80.08878525 450.65771011 -140.57176819 434.20285742 -187.99755859 398.54589844 C-204.00976421 386.18436637 -218.81798453 371.85857611 -230.83886719 355.57128906 C-231.92143281 354.1063201 -233.02630542 352.65790829 -234.1328125 351.2109375 C-250.19025618 329.86398296 -261.91232627 304.69672016 -269 279 C-269.34357544 277.81494873 -269.34357544 277.81494873 -269.6940918 276.60595703 C-271.62969261 269.79200774 -273.03363383 262.98605355 -274.1875 256 C-274.36474609 254.99710937 -274.54199219 253.99421875 -274.72460938 252.9609375 C-277.60301489 235.75718561 -277.60301489 235.75718561 -274.4375 230.3125 C-271.03362851 228.47964612 -268.80853299 228.45592386 -265 229 C-262.41553209 230.6787186 -261.21544303 232.11259443 -260.48291016 235.12988281 C-260.09712176 237.87456771 -259.81802482 240.61515007 -259.5625 243.375 C-257.4506954 262.08547041 -253.16428899 279.58721048 -246 297 C-245.69191406 297.75764648 -245.38382813 298.51529297 -245.06640625 299.29589844 C-233.07352901 328.46944319 -213.62641192 357.01212457 -189 377 C-187.94767136 377.88773012 -186.89561339 378.77578115 -185.84375 379.6640625 C-167.51510294 394.93793505 -147.03052545 406.05345735 -125 415 C-123.72382813 415.53560547 -123.72382813 415.53560547 -122.421875 416.08203125 C-112.95821047 419.81690514 -102.8990883 421.76609222 -93 424 C-92.21641113 424.18256348 -91.43282227 424.36512695 -90.62548828 424.55322266 C-50.4676179 433.7913375 -6.56507442 426.95229188 31 411 C31.99507568 410.58161865 31.99507568 410.58161865 33.01025391 410.15478516 C81.98041453 389.23022677 121.97867672 347.17713434 141.86914062 297.95263672 C148.97358294 279.40317098 153.61236558 260.69798395 156 241 C156.15033691 239.88347046 156.15033691 239.88347046 156.30371094 238.74438477 C162.65102921 188.72819444 146.56792064 134.07261802 116.0625 94.25 C114.39094818 92.14998079 112.71045573 90.06743137 111 88 C110.29423828 87.14196777 110.29423828 87.14196777 109.57421875 86.26660156 C98.88061759 73.33693737 87.44529131 62.05724011 74 52 C73.43941895 51.57332031 72.87883789 51.14664063 72.30126953 50.70703125 C56.55666561 38.75492316 39.30976604 30.30571791 21 23 C20.33484375 22.73316406 19.6696875 22.46632813 18.984375 22.19140625 C9.53803739 18.45727707 -0.10231286 16.14300376 -10 14 C-10.85722656 13.79503906 -11.71445312 13.59007813 -12.59765625 13.37890625 C-62.75616643 1.96718171 -119.80254688 14.08613928 -163 41 C-182.52549193 53.4467772 -200.91821776 68.51933721 -215 87 C-215.74894531 87.89847656 -216.49789062 88.79695313 -217.26953125 89.72265625 C-233.90886919 110.12533395 -245.60266374 134.82697511 -253 160 C-253.34546875 161.175625 -253.6909375 162.35125 -254.046875 163.5625 C-255.76043076 169.88947512 -257.05525614 176.11942897 -257.9609375 182.6171875 C-258.12456787 183.78209717 -258.28819824 184.94700684 -258.45678711 186.1472168 C-258.77238817 188.47150879 -259.06813879 190.79859986 -259.34204102 193.12817383 C-260.55180886 202.18413089 -260.55180886 202.18413089 -263.4375 205.23046875 C-266 207 -266 207 -269.0625 207.625 C-272 207 -272 207 -274.375 205.0625 C-278.62251096 197.0575755 -275.00186833 186.41894104 -273.3125 178 C-273.17583923 177.30958618 -273.03917847 176.61917236 -272.89837646 175.90783691 C-264.19494938 132.09741313 -243.35749972 92.86753134 -212 61 C-211.02005911 59.98251592 -210.04085518 58.9643214 -209.0625 57.9453125 C-187.27423901 35.59996529 -159.97527474 19.21903217 -131 8 C-130.27345215 7.71431152 -129.5469043 7.42862305 -128.79833984 7.13427734 C-88.26013167 -8.50956712 -41.98511874 -10.09635299 0 0 Z " fill="#010203" transform="translate(308,37)"/>
<path d="M0 0 C4.97625376 4.08972788 7.77804758 9.33695766 10.9375 14.875 C12.07795378 16.84069927 13.21993472 18.80551314 14.36328125 20.76953125 C14.95447754 21.78740723 15.54567383 22.8052832 16.15478516 23.85400391 C19.24844335 29.12853149 22.43574899 34.34539911 25.625 39.5625 C26.21659912 40.53106934 26.80819824 41.49963867 27.41772461 42.49755859 C28.47129555 44.2221948 29.52547692 45.94645841 30.58056641 47.67016602 C31.28318604 48.82343384 31.28318604 48.82343384 32 50 C32.54575684 50.85972412 33.09151367 51.71944824 33.65380859 52.60522461 C35.38274527 55.68087566 35.51791294 57.52258452 35 61 C33.4375 63.375 33.4375 63.375 31 65 C27.5625 65.625 27.5625 65.625 24 65 C19.04930829 59.96511285 15.72913873 53.81461214 12.1875 47.75 C11.59001953 46.74453125 10.99253906 45.7390625 10.37695312 44.703125 C6 37.25980357 6 37.25980357 6 35 C5.34 35 4.68 35 4 35 C4 57.77 4 80.54 4 104 C5.98 104.66 7.96 105.32 10 106 C11.89625165 106.86585031 13.77543234 107.76981812 15.63818359 108.70556641 C16.71885101 109.24597565 17.79951843 109.78638489 18.91293335 110.34317017 C20.6382579 111.21357437 20.6382579 111.21357437 22.3984375 112.1015625 C23.60037976 112.70440107 24.80250053 113.30688382 26.00479126 113.9090271 C29.15309413 115.48697804 32.29896358 117.06972086 35.44433594 118.65350342 C38.66064228 120.27192616 41.87924698 121.88576441 45.09765625 123.5 C51.40068331 126.66220553 57.70114881 129.82948354 64 133 C61.72596038 129.25008078 59.45135199 125.50050728 57.17626953 121.7512207 C56.40626543 120.48210435 55.63640312 119.21290196 54.86669922 117.94360352 C54.11900098 116.71063446 53.37095346 115.47787715 52.62255859 114.24533081 C51.87256174 113.00878614 51.12419509 111.77125129 50.37744141 110.53274536 C48.5145947 107.45142811 46.62182535 104.39873765 44.65234375 101.38427734 C44.27980469 100.80562424 43.90726563 100.22697113 43.5234375 99.63078308 C42.50300297 98.05064951 41.46875551 96.47946057 40.43359375 94.90893555 C38.81484611 91.62430031 38.59310219 89.61535059 39 86 C40.5625 83.625 40.5625 83.625 43 82 C46.5 81.5 46.5 81.5 50 82 C53.0521498 84.60026544 55.05077032 87.43739067 57.07421875 90.875 C57.65115479 91.84687256 58.22809082 92.81874512 58.82250977 93.82006836 C59.74567993 95.39413452 59.74567993 95.39413452 60.6875 97 C61.67853845 98.67147502 62.66960446 100.34293412 63.66191101 102.01365662 C64.35716096 103.18445856 65.05173955 104.35565941 65.74568176 105.52723694 C69.79776471 112.3631256 73.93024985 119.14988743 78.0625 125.9375 C80.09561497 129.278949 82.12784243 132.62091771 84.15527344 135.96582031 C85.36424665 137.95432205 86.58078903 139.93824599 87.80566406 141.91699219 C88.35061523 142.80418945 88.89556641 143.69138672 89.45703125 144.60546875 C89.93503174 145.37656982 90.41303223 146.1476709 90.90551758 146.94213867 C92.44789194 149.84213276 92.76097867 151.80388958 92 155 C89.1571719 158.29414923 86.06519688 160.30829691 82.29296875 162.43359375 C81.16101074 163.07562744 80.02905273 163.71766113 78.86279297 164.37915039 C77.63775224 165.06536857 76.41265314 165.75148254 75.1875 166.4375 C73.91778785 167.15490968 72.64842339 167.87293507 71.37939453 168.59155273 C68.18432588 170.39898928 64.98525627 172.19919905 61.784729 173.99694824 C58.23046977 175.99450976 54.68106889 178.00068098 51.13110352 180.00585938 C49.29222022 181.04445623 47.45286361 182.08221552 45.61303711 183.11914062 C37.05264099 187.95049978 28.54108042 192.86532467 20.04052734 197.80102539 C18.01377875 198.97530872 15.98407523 200.14450968 13.95117188 201.30810547 C11.96011765 202.44956855 9.97713969 203.60522011 8.00195312 204.77392578 C6.57012695 205.59932861 6.57012695 205.59932861 5.109375 206.44140625 C4.26858398 206.93455322 3.42779297 207.4277002 2.56152344 207.93579102 C-0.57547219 209.23908533 -2.62548294 209.37584961 -6 209 C-8.82641602 207.81347656 -8.82641602 207.81347656 -11.75390625 206.140625 C-12.84437256 205.52582275 -13.93483887 204.91102051 -15.05834961 204.27758789 C-16.22655602 203.60199542 -17.39460227 202.92612594 -18.5625 202.25 C-19.78134362 201.55673703 -21.0008346 200.86461105 -22.22094727 200.17358398 C-24.67664256 198.77980111 -27.12792596 197.37873963 -29.57519531 195.97021484 C-32.53206217 194.26919435 -35.49434218 192.57850052 -38.4609375 190.89453125 C-42.68376452 188.49413569 -46.89760953 186.07843166 -51.109375 183.65869141 C-56.27195137 180.69631439 -61.44138824 177.74593037 -66.6098938 174.79391479 C-70.5966272 172.51672293 -74.58334378 170.2395375 -78.56591797 167.95507812 C-81.00054714 166.56900458 -83.44020527 165.19832583 -85.89111328 163.84179688 C-86.85163353 163.30549652 -86.85163353 163.30549652 -87.83155823 162.75836182 C-89.62477398 161.75774352 -91.42177987 160.76392644 -93.21899414 159.77050781 C-96 158 -96 158 -98 155 C-98.54456124 150.1141341 -97.48083423 147.39567849 -94.95703125 143.24609375 C-94.30210693 142.15538574 -93.64718262 141.06467773 -92.97241211 139.94091797 C-92.25275903 138.77291622 -91.53278041 137.60511499 -90.8125 136.4375 C-90.07518042 135.22086437 -89.33894546 134.00357081 -88.60375977 132.78564453 C-86.42070975 129.1791388 -84.21347348 125.58789096 -82 122 C-81.40864258 121.0394873 -80.81728516 120.07897461 -80.20800781 119.08935547 C-78.098418 115.66834801 -75.98332846 112.25088978 -73.85766602 108.83984375 C-69.75163619 102.24708116 -65.73678508 95.60296325 -61.75 88.9375 C-56.40540348 80.00218632 -51.03268454 71.08472701 -45.625 62.1875 C-45.27318665 61.60864044 -44.92137329 61.02978088 -44.55889893 60.43338013 C-43.12814641 58.07951796 -41.69721206 55.72576652 -40.26596069 53.37220764 C-37.31384618 48.51753702 -34.3655525 43.66055556 -31.41870117 38.8026886 C-29.60871844 35.81914817 -27.79781274 32.83617826 -25.984375 29.85473633 C-22.8391681 24.68280716 -19.70050085 19.50763682 -16.59375 14.3125 C-16.08569824 13.46768066 -15.57764648 12.62286133 -15.05419922 11.75244141 C-14.13384144 10.22144652 -13.21840153 8.68747896 -12.30908203 7.14990234 C-8.99767052 1.66123441 -6.64854877 -0.93079683 0 0 Z " fill="#000202" transform="translate(259,90)"/>
<path d="M0 0 C1.9375 2.9375 1.9375 2.9375 2 6.5625 C0.81203666 10.33603061 0.2319393 10.97557918 -3.0625 12.9375 C-5.5859375 13.5625 -5.5859375 13.5625 -8.4375 13.9375 C-15.39222519 14.96595633 -22.21103488 16.36551883 -29.0625 17.9375 C-30.21234375 18.19015625 -31.3621875 18.4428125 -32.546875 18.703125 C-61.70994455 25.70735568 -87.04523487 42.07907533 -109.0625 61.9375 C-109.81144531 62.61296875 -110.56039062 63.2884375 -111.33203125 63.984375 C-142.21021274 93.41612436 -159.72858858 137.83273428 -161.3515625 179.94140625 C-161.62342895 192.38205529 -160.62936172 204.41330725 -158.45947266 216.65820312 C-158.10775073 218.67768401 -157.80599788 220.70572739 -157.51171875 222.734375 C-150.91251984 263.13763365 -124.05714435 302.72181838 -91.359375 326.67578125 C-50.59106868 354.64361225 -4.60003633 366.73482066 44.65234375 358.4609375 C63.05623072 354.91084748 81.77656077 348.44731884 97.9375 338.9375 C98.58783203 338.56157715 99.23816406 338.1856543 99.90820312 337.79833984 C128.58346791 321.07110205 151.63781291 297.49074173 166.9375 267.9375 C167.42959961 266.99003906 167.42959961 266.99003906 167.93164062 266.0234375 C177.76971123 246.8363782 183.13030245 227.27260017 185.9375 205.9375 C186.040625 205.17010498 186.14375 204.40270996 186.25 203.61206055 C191.68275082 159.70864295 177.41710417 114.87659487 150.9375 79.9375 C147.11976582 75.1082504 143.08914012 70.48114047 138.9375 65.9375 C138.18984375 65.11765625 137.4421875 64.2978125 136.671875 63.453125 C110.10014732 35.70043165 71.84494022 18.68786155 34.078125 14.01269531 C26.72598829 13.03177552 26.72598829 13.03177552 23.9375 9.9375 C23.37596405 5.51540439 23.13856938 3.21578899 25.5 -0.5625 C34.39499642 -6.03634395 52.59125994 0.75395594 61.9375 2.9375 C90.90448625 10.81119669 117.59679657 25.47156334 139.63671875 45.82421875 C141.71535234 47.73345605 143.84170746 49.55726644 146 51.375 C180.98246231 82.09812059 199.58437745 130.50088666 202.9375 175.9375 C203.75378598 189.99418117 202.62889902 203.58966352 200.34326172 217.46289062 C199.97701931 219.69648454 199.642715 221.93218603 199.31640625 224.171875 C193.97657151 257.20588367 176.60147654 289.45647949 153.9453125 313.77734375 C152.06262006 315.80288639 150.28012939 317.88454391 148.5 320 C129.46013702 341.61862546 103.33867714 355.48703405 76.9375 365.9375 C76.2878125 366.19901855 75.638125 366.46053711 74.96875 366.72998047 C32.20747693 383.6211522 -19.48493998 379.99753684 -61.21875 362.12890625 C-82.78725843 352.5317897 -101.38542487 339.75388963 -118.8125 323.875 C-119.33158936 323.40457275 -119.85067871 322.93414551 -120.38549805 322.44946289 C-135.19555564 308.74080478 -146.63392186 291.64579593 -156.0625 273.9375 C-156.39443359 273.32293945 -156.72636719 272.70837891 -157.06835938 272.07519531 C-179.84819437 229.21122008 -182.97719749 176.68507684 -168.93359375 130.64697266 C-162.27517514 109.93645422 -152.47860228 90.09610389 -139.0625 72.9375 C-138.32386719 71.98875 -137.58523437 71.04 -136.82421875 70.0625 C-116.42636613 44.55612657 -36.68224883 -24.70437166 0 0 Z " fill="#020203" transform="translate(243.0625,69.0625)"/>
<path d="M0 0 C4.98172118 0.99500491 9.29176984 4.01058935 13.61694336 6.56030273 C14.71659424 7.19266846 15.81624512 7.82503418 16.94921875 8.4765625 C20.36826774 10.44778504 23.77456143 12.43972951 27.17944336 14.43530273 C29.1998142 15.60927612 31.22062941 16.78248517 33.24194336 17.95483398 C37.17296848 20.23895071 41.09794523 22.53304339 45.01928711 24.83374023 C49.39677693 27.39904723 53.78552275 29.94411745 58.18334961 32.47436523 C58.76898178 32.81139969 59.35461395 33.14843414 59.95799255 33.49568176 C62.78837637 35.1239959 65.61987939 36.75032991 68.45263672 38.37451172 C69.47623291 38.96304932 70.4998291 39.55158691 71.55444336 40.15795898 C72.5225293 40.71112793 73.49061523 41.26429688 74.48803711 41.83422852 C77.56087723 43.6622116 80.48526366 45.65985235 83.36303711 47.78076172 C85.25628878 48.66338279 85.25628878 48.66338279 87.54589844 47.75463867 C90.37682201 46.33642128 93.13353093 44.84599287 95.87866211 43.26733398 C97.54856201 42.31008423 97.54856201 42.31008423 99.25219727 41.33349609 C100.45716018 40.6383474 101.66207426 39.94311403 102.86694336 39.24780273 C104.12379135 38.52561656 105.38079247 37.80369683 106.63793945 37.08203125 C109.86581484 35.22787206 113.09133685 33.3696632 116.315979 31.5098877 C119.1746954 29.8613809 122.0346279 28.21498586 124.89428711 26.56811523 C125.9591333 25.95419922 127.02397949 25.3402832 128.12109375 24.70776367 C130.24073436 23.48595074 132.36101333 22.26524456 134.48193359 21.0456543 C139.52546492 18.14113614 144.5571462 15.21975871 149.55795288 12.24235535 C151.93745892 10.82721415 154.32255912 9.42165982 156.70819092 8.01687622 C158.38792977 7.022381 160.05944619 6.01403901 161.73071289 5.00537109 C162.7502002 4.4060376 163.7696875 3.8067041 164.82006836 3.18920898 C165.71242188 2.65626221 166.60477539 2.12331543 167.52416992 1.57421875 C170.65721572 0.23037371 172.8016376 0.07372582 176.17944336 0.43530273 C179.11694336 2.56030273 179.11694336 2.56030273 181.17944336 5.43530273 C180.87863045 9.75356572 179.71005705 12.73915637 177.44116211 16.38452148 C176.87478027 17.30467041 176.30839844 18.22481934 175.72485352 19.17285156 C175.11174316 20.14633545 174.49863281 21.11981934 173.86694336 22.12280273 C172.91634033 23.65747192 172.91634033 23.65747192 171.9465332 25.22314453 C170.03550063 28.30112678 168.11047454 31.36983519 166.17944336 34.43530273 C165.65850098 35.26320313 165.13755859 36.09110352 164.60083008 36.9440918 C162.69061396 39.97559132 160.77658066 43.00460008 158.85522461 46.02905273 C154.62944615 52.68852559 150.49249333 59.40087371 146.36694336 66.12280273 C141.17415275 74.58345955 135.9513825 83.02372996 130.67944336 91.43530273 C125.4725585 99.74424904 120.31101653 108.07964273 115.17944336 116.43530273 C113.18865513 119.6713406 111.19718598 122.906958 109.20532227 126.14233398 C107.82325959 128.38881041 106.4425759 130.6360802 105.0637207 132.88452148 C103.00558659 136.23940111 100.93659489 139.58751518 98.86694336 142.93530273 C98.23852539 143.96268555 97.61010742 144.99006836 96.96264648 146.04858398 C96.37805664 146.99088867 95.7934668 147.93319336 95.19116211 148.90405273 C94.68029053 149.73356445 94.16941895 150.56307617 93.64306641 151.41772461 C92.17944336 153.43530273 92.17944336 153.43530273 89.17944336 155.43530273 C86.30444336 155.87280273 86.30444336 155.87280273 83.17944336 155.43530273 C77.98177618 151.19720488 74.98928267 145.52321615 71.61694336 139.81030273 C70.36436308 137.71966397 69.11043791 135.62983045 67.85522461 133.54077148 C67.23341309 132.50355957 66.61160156 131.46634766 65.97094727 130.39770508 C63.47374995 126.26837934 60.89820986 122.19191857 58.30444336 118.12280273 C53.58933789 110.70643397 48.96398515 103.23789119 44.36694336 95.74780273 C38.49330115 86.17853516 32.57362609 76.63980637 26.61376953 67.12402344 C22.09015388 59.89947476 17.59554014 52.65755696 13.11694336 45.4050293 C10.12879416 40.57049902 7.12489293 35.74631385 4.10522461 30.93139648 C3.42073242 29.83956055 2.73624023 28.74772461 2.03100586 27.62280273 C0.69796243 25.49810517 -0.63660962 23.3743657 -1.97290039 21.25170898 C-2.87782227 19.80924805 -2.87782227 19.80924805 -3.80102539 18.33764648 C-4.33622803 17.48678467 -4.87143066 16.63592285 -5.42285156 15.75927734 C-9.50183054 8.97712872 -9.50183054 8.97712872 -8.82055664 4.43530273 C-6.41593652 0.87646495 -4.28704368 -0.12061305 0 0 Z " fill="#000101" transform="translate(169.820556640625,266.564697265625)"/>
<path d="M0 0 C22.40029615 0.08281071 44.58642779 7.34653924 65 16 C65.85029785 16.35964844 66.7005957 16.71929687 67.57666016 17.08984375 C86.6086551 25.29309557 103.36031176 36.4692864 119 50 C119.95648438 50.82628906 120.91296875 51.65257812 121.8984375 52.50390625 C131.12087054 60.6622124 139.43477648 69.27862546 147 79 C147.42007324 79.53302734 147.84014648 80.06605469 148.27294922 80.61523438 C160.75437371 96.55369413 170.42759094 114.25563746 178 133 C178.45761719 134.11761719 178.91523438 135.23523438 179.38671875 136.38671875 C195.56172185 178.686648 196.69139908 226.8967579 183 270 C182.74879395 270.80163574 182.49758789 271.60327148 182.23876953 272.42919922 C164.92984917 326.79383641 126.21381666 370.89370459 75.77392578 397.15917969 C56.96370243 406.65128207 21.23137145 423.61400123 0 417 C1.22589844 416.63390625 2.45179688 416.2678125 3.71484375 415.890625 C29.76845697 407.82226043 55.63037299 395.45018139 76 377 C76.5465625 376.50628906 77.093125 376.01257813 77.65625 375.50390625 C79.10576367 374.03530678 79.10576367 374.03530678 79.890625 372.00390625 C81.3797069 369.31412098 83.09828431 368.47125863 85.75 366.9375 C100.66055879 357.78872372 115.07376908 345.68861888 126 332 C126.76699219 331.04738281 127.53398437 330.09476562 128.32421875 329.11328125 C160.70255154 288.30452952 175.75866321 237.42515379 169.875 185.5625 C164.19074633 140.27386479 141.13331095 93.81599171 105 65 C104.01257813 64.20980469 103.02515625 63.41960937 102.0078125 62.60546875 C95.88542148 57.77690045 89.70793946 53.39676371 82.94921875 49.47265625 C82.30597656 48.98667969 81.66273438 48.50070313 81 48 C81 47.01 81 46.02 81 45 C61.12312151 24.82700414 32.44679919 11.83383261 6 3 C4.84628906 2.61457031 3.69257813 2.22914062 2.50390625 1.83203125 C1.26447266 1.42017578 1.26447266 1.42017578 0 1 C0 0.67 0 0.34 0 0 Z " fill="#A0ACE0" transform="translate(274,47)"/>
<path d="M0 0 C51.81661123 5.02368821 99.94185227 31.3594416 137 67 C137.49129395 67.46937988 137.98258789 67.93875977 138.48876953 68.42236328 C154.15848991 83.46002771 167.31144363 101.32270157 177.99121094 120.21728516 C178.97118841 121.94908464 179.97356727 123.66814787 180.9765625 125.38671875 C190.63532236 142.3363774 197.47979004 161.05962216 202 180 C202.17724609 180.7110791 202.35449219 181.4221582 202.53710938 182.15478516 C203.842761 187.4092081 204.98444345 192.68197809 206 198 C206.22864746 199.19641113 206.22864746 199.19641113 206.46191406 200.41699219 C215.93363609 252.39894829 204.71442461 307.80171424 180 354 C179.38640625 355.15628906 178.7728125 356.31257813 178.140625 357.50390625 C147.85837844 412.49996973 95.03376257 452.90517324 35.22338867 470.6940918 C24.24458895 473.86661262 13.44610508 476.32257745 2 477 C4.61541576 475.25638949 6.51669098 474.36597933 9.4375 473.37109375 C10.32260254 473.06333008 11.20770508 472.75556641 12.11962891 472.43847656 C13.07015137 472.1081543 14.02067383 471.77783203 15 471.4375 C42.02918333 461.77506423 69.56659237 447.502323 90 427 C91.84188935 425.7017055 93.71898438 424.45217697 95.625 423.25 C106.3260298 416.25116022 115.73484991 407.76765114 125 399 C125.92941406 398.12472656 126.85882813 397.24945313 127.81640625 396.34765625 C134.96474704 389.42301887 141.03053439 381.94129066 147 374 C147.71027344 373.07316406 148.42054688 372.14632813 149.15234375 371.19140625 C170.41951427 342.84921663 185.28068425 307.09469965 190 272 C190.10151367 271.25347168 190.20302734 270.50694336 190.30761719 269.73779297 C193.89625241 241.94002075 192.66288554 214.22436943 186 187 C185.83806152 186.30406738 185.67612305 185.60813477 185.50927734 184.89111328 C181.14731524 166.23093746 174.04004219 148.8688078 165 132 C164.68063477 131.39994141 164.36126953 130.79988281 164.03222656 130.18164062 C154.45167157 112.34332808 141.88686435 96.66583666 128 82 C127.1234375 81.06929688 126.246875 80.13859375 125.34375 79.1796875 C114.48537665 67.97001383 101.76258037 58.21521638 88.625 49.8125 C86 48 86 48 83.73046875 45.6953125 C61.31067422 23.56418486 29.20051105 11.14814089 0 1 C0 0.67 0 0.34 0 0 Z " fill="#324FC2" transform="translate(288,17)"/>
<path d="M0 0 C0.66 0 1.32 0 2 0 C2.85271484 1.54107422 2.85271484 1.54107422 3.72265625 3.11328125 C10.75437965 16.85661437 10.75437965 16.85661437 20 29 C21.24652344 28.88140625 22.49304688 28.7628125 23.77734375 28.640625 C26.47078327 28.57485709 27.56671302 28.61479747 29.60595703 30.42773438 C31.08446422 32.47068737 32.3367793 34.5463715 33.5625 36.75 C34.01173828 37.47960937 34.46097656 38.20921875 34.92382812 38.9609375 C38.1003525 44.34487712 38.1003525 44.34487712 37.67553711 47.11816406 C37 49 37 49 36 51 C35.46888433 56.18637929 36.7480493 58.95110459 39.47265625 63.32421875 C39.8333873 63.91112991 40.19411835 64.49804108 40.56578064 65.10273743 C41.71902679 66.97230459 42.89032182 68.82975833 44.0625 70.6875 C44.82347308 71.91526806 45.5832496 73.1437786 46.34179688 74.37304688 C50.40498631 80.93758831 54.55205869 87.44354308 58.78295898 93.90161133 C60 96 60 96 60 98 C55.92697886 96.7217614 52.17484582 95.20989907 48.36181641 93.29443359 C47.26619385 92.74650146 46.17057129 92.19856934 45.04174805 91.6340332 C43.90648682 91.06128662 42.77122559 90.48854004 41.6015625 89.8984375 C40.54606201 89.36968018 39.49056152 88.84092285 38.40307617 88.29614258 C34.47485001 86.32681217 30.55013134 84.35049159 26.625 82.375 C17.83875 77.96125 9.0525 73.5475 0 69 C0 46.23 0 23.46 0 0 Z " fill="#1DB981" transform="translate(263,125)"/>
<path d="M0 0 C4.33691292 0.86738258 7.02417264 1.82915878 10.8918457 3.77563477 C12.05267166 4.35616104 13.21349762 4.93668732 14.40950012 5.5348053 C15.6649923 6.17021026 16.92041781 6.80574698 18.17578125 7.44140625 C19.46874629 8.0906884 20.7619785 8.73943877 22.0554657 9.38768005 C25.44963541 11.09047623 28.84013843 12.80045043 32.22991943 14.51196289 C35.6934048 16.25908373 39.16032174 17.99936669 42.62695312 19.74023438 C49.42133889 23.15348659 56.21186421 26.57433194 63 30 C63 30.99 63 31.98 63 33 C62.30777344 33.3810791 61.61554688 33.7621582 60.90234375 34.15478516 C43.50788322 43.74293723 26.11062669 53.3594007 9.16845703 63.73388672 C8.26853027 64.28447754 7.36860352 64.83506836 6.44140625 65.40234375 C5.63517822 65.90113037 4.8289502 66.39991699 3.99829102 66.91381836 C2 68 2 68 0 68 C0 45.56 0 23.12 0 0 Z " fill="#23F0A7" transform="translate(263,211)"/>
<path d="M0 0 C0 22.11 0 44.22 0 67 C-3.72055887 65.51177645 -6.94066104 64.01809314 -10.41015625 62.0859375 C-11.46976563 61.4971582 -12.529375 60.90837891 -13.62109375 60.30175781 C-14.75675781 59.66592773 -15.89242187 59.03009766 -17.0625 58.375 C-18.24998345 57.71188442 -19.43748373 57.04879899 -20.625 56.38574219 C-24.42040356 54.2637933 -28.21047134 52.13241756 -32 50 C-32.65152039 49.63386597 -33.30304077 49.26773193 -33.9743042 48.89050293 C-37.86728894 46.70241464 -41.75648466 44.50782256 -45.64059448 42.30401611 C-46.87517277 41.60418738 -48.11062087 40.90589076 -49.34695435 40.20916748 C-51.07780527 39.23285017 -52.80461949 38.24938691 -54.53125 37.265625 C-55.51673828 36.70649414 -56.50222656 36.14736328 -57.51757812 35.57128906 C-59.7040508 34.18732583 -61.2268624 32.84821872 -63 31 C-50.32321415 24.2638268 -37.57226293 17.69291341 -24.73217773 11.2734375 C-21.87850253 9.84547807 -19.02811875 8.41107758 -16.17773438 6.9765625 C-14.35696541 6.06471554 -12.53600932 5.1532421 -10.71484375 4.2421875 C-9.44168556 3.60021927 -9.44168556 3.60021927 -8.14280701 2.94528198 C-7.36341263 2.55712311 -6.58401825 2.16896423 -5.78100586 1.76904297 C-5.09662949 1.42614227 -4.41225311 1.08324158 -3.70713806 0.72994995 C-2 0 -2 0 0 0 Z " fill="#71F1C1" transform="translate(248,211)"/>
<path d="M0 0 C0.33 0 0.66 0 1 0 C1 22.44 1 44.88 1 68 C-14.34068984 76.07404729 -29.68219281 83.96734807 -45.3125 91.4375 C-46.68414307 92.09395508 -46.68414307 92.09395508 -48.08349609 92.76367188 C-48.9389502 93.17037109 -49.7944043 93.57707031 -50.67578125 93.99609375 C-51.8191394 94.54027954 -51.8191394 94.54027954 -52.9855957 95.09545898 C-55 96 -55 96 -58 97 C-56.5889953 93.17633805 -54.81151387 89.84387557 -52.68359375 86.37109375 C-52.01070312 85.26830078 -51.3378125 84.16550781 -50.64453125 83.02929688 C-49.90888442 81.83201266 -49.17320647 80.63474757 -48.4375 79.4375 C-47.67147143 78.18449143 -46.90585357 76.93123168 -46.140625 75.67773438 C-44.55090594 73.07438199 -42.95942677 70.47211826 -41.36669922 67.87060547 C-38.07815467 62.49622529 -34.81117861 57.10878803 -31.5440979 51.72134399 C-29.7961429 48.83959138 -28.04635958 45.95894917 -26.296875 43.078125 C-23.69840268 38.79871483 -21.10118153 34.5185482 -18.50512695 30.2376709 C-16.95901087 27.68823098 -15.41250324 25.13902869 -13.8659668 22.58984375 C-13.13351259 21.38227977 -12.40124721 20.17460123 -11.66918945 18.96679688 C-9.45148296 15.30791632 -7.22786998 11.65269982 -5 8 C-4.48630859 7.15244141 -3.97261719 6.30488281 -3.44335938 5.43164062 C-2.32351342 3.60368035 -1.16675494 1.79838168 0 0 Z " fill="#26DE9B" transform="translate(247,126)"/>
<path d="M0 0 C7.50660247 4.07655425 14.98482603 8.20070297 22.4375 12.375 C24.03356079 13.26868286 24.03356079 13.26868286 25.66186523 14.18041992 C33.38074652 18.51104364 41.07476859 22.88362332 48.75656128 27.27960205 C50.54996643 28.30533149 52.34431259 29.32939607 54.13891602 30.35302734 C59.14693417 33.21203116 64.14871979 36.07779597 69.11328125 39.01171875 C69.84925537 39.44121826 70.58522949 39.87071777 71.34350586 40.31323242 C72.63836315 41.0696681 73.92764249 41.83579302 75.20922852 42.61450195 C79.03403469 44.83177288 81.61788021 45.74894411 86 45 C89.53728194 43.47193766 92.84597485 41.60043157 96.1875 39.6875 C97.16509277 39.14061523 98.14268555 38.59373047 99.14990234 38.03027344 C102.10884049 36.36866049 105.05622355 34.68830515 108 33 C108.80163574 32.54125488 109.60327148 32.08250977 110.42919922 31.60986328 C114.2040136 29.44406659 117.96781601 27.25995095 121.7265625 25.06640625 C127.68120451 21.5953998 133.66157843 18.16954114 139.6449585 14.74841309 C140.86060627 14.0531744 142.07598888 13.35747182 143.29107666 12.66125488 C150.81343892 8.3513089 158.370099 4.11679062 166 0 C169.05191308 5.24929049 169.05191308 5.24929049 168.82519531 8.52783203 C167.81692522 11.54846605 166.92021094 12.2201435 164.234375 13.8671875 C163.00944336 14.62467285 163.00944336 14.62467285 161.75976562 15.39746094 C156.62735421 18.37774655 151.4568373 21.27674574 146.25 24.125 C143.83212312 25.45614339 141.41600441 26.79046176 139 28.125 C138.40068665 28.4556546 137.80137329 28.7863092 137.18389893 29.12698364 C131.84390395 32.07682293 126.54075791 35.08796887 121.25 38.125 C120.42395264 38.59808594 119.59790527 39.07117188 118.74682617 39.55859375 C115.15081514 41.61844134 111.55598048 43.68030452 107.96337891 45.74609375 C104.83265871 47.5441915 101.6979156 49.3351052 98.5625 51.125 C97.59666992 51.68203613 96.63083984 52.23907227 95.63574219 52.81298828 C93.11072983 54.25080527 90.56509909 55.63539812 88 57 C86.49373047 57.83144531 86.49373047 57.83144531 84.95703125 58.6796875 C79.93970241 59.22317622 76.35014226 56.49423443 72.125 54 C71.16102295 53.45255127 70.1970459 52.90510254 69.20385742 52.34106445 C66.12249865 50.58287885 63.06000053 48.7950645 60 47 C58.05614926 45.86821529 56.11214104 44.73670102 54.16796875 43.60546875 C51.22401045 41.88924773 48.28221835 40.16967686 45.34545898 38.44116211 C36.43593236 33.20732753 27.41386282 28.19163943 18.34692383 23.23706055 C13.09949691 20.35295116 7.89121897 17.41132125 2.76953125 14.30859375 C1.87468018 13.76904053 0.9798291 13.2294873 0.05786133 12.67358398 C-2 11 -2 11 -2.83300781 8.91333008 C-3.13182519 5.48959942 -1.46332062 3.04370689 0 0 Z " fill="#182C79" transform="translate(173,253)"/>
<path d="M0 0 C3.80962064 1.424206 7.24403968 3.17908883 10.76953125 5.203125 C11.89512451 5.84757568 13.02071777 6.49202637 14.18041992 7.15600586 C15.39120427 7.85384607 16.60189564 8.5518476 17.8125 9.25 C19.05629798 9.96444561 20.30019562 10.67871774 21.54418945 11.39282227 C25.36632336 13.5891169 29.18389275 15.79325372 33 18 C33.60726929 18.35108826 34.21453857 18.70217651 34.84020996 19.06390381 C38.79239956 21.34979591 42.74104801 23.6417115 46.6875 25.9375 C47.71399658 26.53401367 48.74049316 27.13052734 49.7980957 27.74511719 C50.73484131 28.29200195 51.67158691 28.83888672 52.63671875 29.40234375 C53.45873779 29.88179443 54.28075684 30.36124512 55.12768555 30.85522461 C57 32 57 32 58 33 C58.09381302 34.84118029 58.11743954 36.68597641 58.11352539 38.52954102 C58.11344986 39.71068985 58.11337433 40.89183868 58.11329651 42.10877991 C58.10813522 43.3941716 58.10297394 44.67956329 58.09765625 46.00390625 C58.0962413 47.31205795 58.09482635 48.62020966 58.09336853 49.96800232 C58.0895441 53.45162859 58.07971446 56.93521339 58.06866455 60.41882324 C58.05844882 63.97126708 58.05387056 67.52371759 58.04882812 71.07617188 C58.03809212 78.05079832 58.0210166 85.02539717 58 92 C55.37201389 89.42548256 53.26010357 87.08506254 51.40625 83.90234375 C50.93993164 83.11134277 50.47361328 82.3203418 49.99316406 81.50537109 C49.25404785 80.2342749 49.25404785 80.2342749 48.5 78.9375 C44.51284364 72.1852153 40.46493119 65.4876122 36.25 58.875 C30.77166384 50.26748477 25.42943628 41.58010113 20.09863281 32.88061523 C14.88271566 24.38811267 9.56229273 15.96668248 4.16455078 7.58862305 C3.34059814 6.30532104 3.34059814 6.30532104 2.5 4.99609375 C2.0153125 4.24513428 1.530625 3.4941748 1.03125 2.72045898 C0 1 0 1 0 0 Z " fill="#25DA98" transform="translate(191,296)"/>
<path d="M0 0 C0.66 0.33 1.32 0.66 2 1 C1.6596875 1.53028809 1.319375 2.06057617 0.96875 2.60693359 C-6.79495687 14.71965843 -14.43341846 26.90190915 -21.95605469 39.16577148 C-28.31917341 49.53538356 -34.75380373 59.85903179 -41.22167969 70.16357422 C-43.00877066 73.01398923 -44.78984173 75.86810248 -46.5703125 78.72265625 C-47.67165316 80.48190973 -48.77320456 82.2410313 -49.875 84 C-50.63441895 85.2209436 -50.63441895 85.2209436 -51.40917969 86.46655273 C-52.57901551 88.32834358 -53.78531 90.16715815 -55 92 C-55.33 92 -55.66 92 -56 92 C-56.34901021 84.46459785 -56.61476596 76.93003954 -56.77718258 69.38837528 C-56.85519239 65.88482121 -56.96071027 62.38682614 -57.1315918 58.88647461 C-58.19763225 36.45117158 -58.19763225 36.45117158 -54.68878174 30.94085693 C-51.31573882 27.71843108 -47.3926772 26.16636855 -43.01565552 24.72116089 C-39.89373928 23.60420223 -37.19423148 21.88329048 -34.375 20.15625 C-32.25072913 18.93622957 -30.12572531 17.71748448 -28 16.5 C-18.97951815 11.33773978 -18.97951815 11.33773978 -10.0625 6 C-9.010625 5.35514648 -9.010625 5.35514648 -7.9375 4.69726562 C-6.68295192 3.92202574 -5.43262817 3.13989008 -4.1875 2.34960938 C-2.82657392 1.50720922 -1.41747849 0.74331189 0 0 Z " fill="#1CB77F" transform="translate(319,296)"/>
<path d="M0 0 C4.33691292 0.86738258 7.02417264 1.82915878 10.8918457 3.77563477 C12.05267166 4.35616104 13.21349762 4.93668732 14.40950012 5.5348053 C15.6649923 6.17021026 16.92041781 6.80574698 18.17578125 7.44140625 C19.46874629 8.0906884 20.7619785 8.73943877 22.0554657 9.38768005 C25.44963541 11.09047623 28.84013843 12.80045043 32.22991943 14.51196289 C35.6934048 16.25908373 39.16032174 17.99936669 42.62695312 19.74023438 C49.42133889 23.15348659 56.21186421 26.57433194 63 30 C63 30.99 63 31.98 63 33 C62.30777344 33.3810791 61.61554688 33.7621582 60.90234375 34.15478516 C43.50788322 43.74293723 26.11062669 53.3594007 9.16845703 63.73388672 C8.26853027 64.28447754 7.36860352 64.83506836 6.44140625 65.40234375 C5.63517822 65.90113037 4.8289502 66.39991699 3.99829102 66.91381836 C2 68 2 68 0 68 C0 45.56 0 23.12 0 0 Z M1 7 C1 23.83 1 40.66 1 58 C4.87087747 56.45164901 8.24695417 54.85047453 11.8671875 52.83984375 C12.99398926 52.21489014 14.12079102 51.58993652 15.28173828 50.94604492 C16.47968788 50.27688017 17.67743852 49.6073591 18.875 48.9375 C19.47793884 48.60118561 20.08087769 48.26487122 20.7020874 47.91836548 C27.88306997 43.91124566 35.0537785 39.88620624 42.125 35.6875 C42.72683105 35.33357178 43.32866211 34.97964355 43.94873047 34.61499023 C47.00952934 32.8375717 47.00952934 32.8375717 49 30 C45.05993976 28.00463814 41.116903 26.01530456 37.17138672 24.03076172 C35.83858741 23.35943284 34.50651716 22.68665395 33.17529297 22.01220703 C22.58025988 16.64630948 11.87370695 11.83275864 1 7 Z " fill="#24D594" transform="translate(263,211)"/>
<path d="M0 0 C2.81749283 3.39930336 5.23563972 6.8476021 7.51171875 10.62890625 C8.17945313 11.73371338 8.8471875 12.83852051 9.53515625 13.97680664 C10.25270698 15.17197604 10.97015238 16.36720868 11.6875 17.5625 C12.43195056 18.79765032 13.17674789 20.03259169 13.921875 21.26733398 C15.08417755 23.19350299 16.2461842 25.11984437 17.40682983 27.04701233 C20.2088678 31.69792332 23.03113156 36.33612416 25.86328125 40.96875 C26.64825368 42.25443909 27.43316669 43.54016445 28.21801758 44.82592773 C29.3535633 46.68620772 30.48987802 48.54598937 31.6289978 50.40408325 C32.68249761 52.12317591 33.73196848 53.84473564 34.78125 55.56640625 C35.38001953 56.54552979 35.97878906 57.52465332 36.59570312 58.53344727 C38 61 38 61 39 64 C33.9505707 63.44605005 29.91621258 61.7297247 25.44921875 59.4375 C24.74980667 59.0861499 24.05039459 58.7347998 23.32978821 58.37280273 C21.86144996 57.63344617 20.3950172 56.89029438 18.93041992 56.14355469 C16.68084922 54.9966091 14.42601645 53.8606133 12.16992188 52.7265625 C10.74187317 52.00583081 9.3141277 51.28449789 7.88671875 50.5625 C7.21074142 50.22081787 6.5347641 49.87913574 5.83830261 49.52709961 C1.11837701 47.11837701 1.11837701 47.11837701 0 46 C-0.09295815 44.55710213 -0.11746513 43.10970215 -0.11352539 41.66381836 C-0.11344986 40.7429393 -0.11337433 39.82206024 -0.11329651 38.87327576 C-0.10813522 37.87224319 -0.10297394 36.87121063 -0.09765625 35.83984375 C-0.0962413 34.82024063 -0.09482635 33.80063751 -0.09336853 32.75013733 C-0.08775097 29.47922893 -0.0751955 26.20838787 -0.0625 22.9375 C-0.05748726 20.72591244 -0.05292396 18.51432382 -0.04882812 16.30273438 C-0.03777584 10.86846643 -0.02102063 5.43423803 0 0 Z " fill="#25CE90" transform="translate(264,148)"/>
<path d="M0 0 C-1.34020735 3.61367978 -2.95983545 6.74566203 -5.01953125 10 C-5.62345703 10.95946533 -6.22738281 11.91893066 -6.84960938 12.9074707 C-7.49736328 13.92800537 -8.14511719 14.94854004 -8.8125 16 C-10.1736215 18.15987625 -11.53428993 20.32003808 -12.89453125 22.48046875 C-13.58111816 23.5689209 -14.26770508 24.65737305 -14.97509766 25.77880859 C-18.01013377 30.6069092 -21.0055425 35.45916963 -24 40.3125 C-25.99818473 43.54279321 -27.99824469 46.77191827 -30 50 C-30.60424805 50.97453125 -30.60424805 50.97453125 -31.22070312 51.96875 C-32.22617222 53.58601246 -33.23774519 55.19947608 -34.25 56.8125 C-34.77078125 57.64394531 -35.2915625 58.47539062 -35.828125 59.33203125 C-36.40820312 60.15767578 -36.40820312 60.15767578 -37 61 C-37.33 61 -37.66 61 -38 61 C-38 47.47 -38 33.94 -38 20 C-28.66666667 14.66666667 -19.33333333 9.33333333 -10 4 C-9.38109894 3.62645386 -8.76219788 3.25290771 -8.12454224 2.86804199 C-3.31719282 0 -3.31719282 0 0 0 Z " fill="#25CF90" transform="translate(302,308)"/>
<path d="M0 0 C0.66 0.33 1.32 0.66 2 1 C-1.3 3.64 -4.6 6.28 -8 9 C-8 6 -8 6 -6.8125 4.5 C-4.6460581 2.70708256 -2.503472 1.28383179 0 0 Z " fill="#4960C1" transform="translate(372,448)"/>
<path d="M0 0 C0 0.99 0 1.98 0 3 C-2 4.6875 -2 4.6875 -4 6 C-4.66 5.67 -5.32 5.34 -6 5 C-2.25 1.125 -2.25 1.125 0 0 Z " fill="#B0B9DF" transform="translate(359,415)"/>
</svg>
